<svg version="1.2" xmlns="http://www.w3.org/2000/svg" viewBox="0 0 150 68" width="150" height="68">
	<title>64d3dd9edfb41666c35b15c2_Sundown logo-svg</title>
	<defs>
		<clipPath clipPathUnits="userSpaceOnUse" id="cp1">
			<path d="m0 0h150v68h-150z"/>
		</clipPath>
	</defs>
	<style>
		.s0 { fill: #fe330a } 
		.s1 { fill: #ffffff } 
		.s2 { fill: #613690 } 
		.s3 { fill: #60368f } 
	</style>
	<g id="Clip-Path" clip-path="url(#cp1)">
		<g>
			<path class="s0" d="m105.7 23.1l1.3-4.8q-1.2 0.9-2.3 1.8l0.9 3z"/>
			<path class="s0" d="m117.1 23.1l2.8-9.6q-2.7 0.3-5.3 1.1l2.4 8.5z"/>
			<path class="s0" d="m141.2 20.5v5.2h-2.3v-7c-2.9-2.2-6.4-3.8-10.1-4.7q-0.1 0.5-0.1 1.1v10.6h-2.3v-12.1q-1.8-0.3-3.7-0.3-0.2 0-0.5 0.1l-3.9 12.3h-2.5l-3-10.5q-1.8 0.7-3.4 1.6l-2.5 8.9h-2.5l-1.3-4.1c-4.7 5-7.7 11.7-7.7 19.1 0 15.1 12.2 27.3 27.3 27.3 15.1 0 27.3-12.2 27.3-27.3 0-8-3.4-15.2-8.8-20.2z"/>
			<path fill-rule="evenodd" class="s1" d="m96.6 20.3q-0.6 1.7-1.7 3-1.1 1.3-2.7 2.1-1.6 0.8-3.6 0.8-2.1 0-3.7-0.8-1.6-0.8-2.7-2.1-1.1-1.3-1.7-3-0.5-1.8-0.5-3.7 0-2 0.5-3.7 0.6-1.8 1.7-3.1 1.1-1.3 2.7-2.1 1.6-0.7 3.7-0.7 2 0 3.6 0.7 1.6 0.8 2.7 2.1 1.1 1.3 1.7 3.1 0.5 1.7 0.5 3.7 0 1.9-0.5 3.7zm-1.7-3.7q0-1.5-0.4-2.9-0.4-1.3-1.2-2.4-0.8-1.1-2-1.8-1.2-0.7-2.7-0.7-1.6 0-2.8 0.7-1.2 0.7-2 1.8-0.8 1.1-1.2 2.4-0.4 1.4-0.4 2.9 0 1.4 0.4 2.8 0.4 1.4 1.2 2.5 0.8 1.1 2 1.8 1.2 0.6 2.8 0.6 1.5 0 2.7-0.6 1.2-0.7 2-1.8 0.8-1.1 1.2-2.5 0.4-1.4 0.4-2.8z"/>
			<path class="s1" d="m124.1 7.5h-2.4l-1.8 6q1.2-0.1 2.3-0.1z"/>
			<path class="s1" d="m17.7 14.5q-0.9-0.7-2.1-1.2-1.1-0.6-2.5-0.9l-6.1-1.5q-0.8-0.2-1.5-0.5-0.6-0.3-1.2-0.7-0.5-0.5-0.8-1.1-0.3-0.7-0.3-1.6 0-1.4 0.5-2.3 0.6-1 1.4-1.6 0.9-0.5 2-0.8 1.2-0.3 2.4-0.3 1.3 0 2.5 0.4 1.3 0.4 2.2 1.1 0.9 0.7 1.5 1.8 0.6 1.1 0.7 2.5h2.3q0-1.9-0.7-3.4-0.8-1.4-2-2.4-1.3-1-3-1.5-1.7-0.5-3.5-0.5-2.7 0-4.4 0.8-1.6 0.7-2.6 1.8-1 1.1-1.3 2.3-0.4 1.3-0.4 2.2 0 1.5 0.5 2.5 0.5 1 1.2 1.7 0.8 0.7 1.9 1.1 1 0.4 2.1 0.7l5.6 1.4q0.8 0.2 1.8 0.5 0.9 0.4 1.6 0.9 0.8 0.5 1.3 1.3 0.4 0.8 0.4 1.8 0 1.4-0.6 2.4-0.7 0.9-1.7 1.6-1 0.6-2.2 0.9-1.1 0.2-2.1 0.2-1.7 0-3.2-0.3-1.6-0.3-2.7-1.1-1.1-0.8-1.7-2.1-0.6-1.3-0.6-3.2h-2.4q-0.1 2.3 0.6 4 0.7 1.6 2.1 2.7 1.3 1 3.2 1.5 1.9 0.5 4.1 0.5 2.2 0 3.8-0.4 1.6-0.4 2.7-1 1-0.7 1.7-1.5 0.6-0.8 0.9-1.6 0.3-0.8 0.4-1.5 0.1-0.7 0.1-1.1 0-1.5-0.5-2.6-0.5-1.1-1.4-1.9z"/>
			<path class="s1" d="m35.5 17q0 1.4-0.3 2.7-0.4 1.3-1 2.4-0.7 1-1.7 1.6-1 0.6-2.5 0.6-2.6 0-3.7-1.2-1.1-1.3-1.1-3.8v-11.8h-2.2v11.8q0 1.6 0.3 2.9 0.4 1.2 1.1 2.1 0.8 0.9 2 1.4 1.2 0.5 2.9 0.5 2.1 0 3.7-1 1.7-1 2.6-2.8v3.3h2.1v-18.2h-2.2z"/>
			<path class="s1" d="m55.1 8.9q-0.7-0.9-2-1.4-1.3-0.5-3.2-0.5-1.9 0-3.5 1-1.7 1-2.3 2.6h-0.1v-3.1h-2.2v18.2h2.2v-10.6q0.1-1.4 0.5-2.5 0.4-1.2 1.1-2 0.7-0.8 1.8-1.3 1-0.5 2.3-0.5 1.4 0 2.3 0.5 0.9 0.4 1.4 1.1 0.5 0.8 0.7 1.8 0.2 1 0.2 2.1v11.4h2.3v-11.7q0-1.6-0.4-3-0.3-1.3-1.1-2.2z"/>
			<path fill-rule="evenodd" class="s1" d="m74.5 0.5h2.2v25.2h-2.1v-3.5q-0.4 0.9-1.1 1.6-0.6 0.8-1.5 1.3-0.9 0.5-1.9 0.8-1 0.3-2 0.3-2.1 0-3.6-0.8-1.5-0.8-2.5-2.1-1.1-1.3-1.5-3-0.5-1.8-0.5-3.7 0-2 0.5-3.7 0.4-1.7 1.5-3.1 1-1.3 2.5-2.1 1.5-0.7 3.6-0.7 1 0 2 0.2 1 0.3 1.8 0.8 0.8 0.5 1.5 1.2 0.6 0.8 1 1.7h0.1zm0 16.1q0-1.4-0.4-2.8-0.3-1.4-1.1-2.5-0.7-1.1-1.9-1.8-1.2-0.6-3-0.6-1.6 0-2.7 0.6-1.1 0.7-1.8 1.8-0.8 1.1-1.1 2.5-0.3 1.4-0.3 2.8 0 1.4 0.3 2.8 0.3 1.4 1.1 2.5 0.7 1.1 1.8 1.8 1.1 0.6 2.7 0.6 1.8 0 3-0.6 1.2-0.7 1.9-1.8 0.8-1.1 1.1-2.5 0.4-1.4 0.4-2.8z"/>
			<path class="s1" d="m104.7 20.1l-3.7-12.6h-2.4l4.5 14.1q0.8-0.8 1.6-1.5z"/>
			<path class="s1" d="m129.1 12.6q0.4-1.2 1.1-2 0.7-0.8 1.8-1.3 1-0.5 2.3-0.5 1.4 0 2.3 0.5 0.9 0.4 1.4 1.1 0.5 0.8 0.7 1.8 0.2 1 0.2 2.1v4.4q1.2 0.9 2.3 1.8v-6.5q0-1.6-0.4-3-0.3-1.3-1-2.1-0.8-0.9-2.1-1.4-1.3-0.5-3.2-0.5-1.9 0-3.5 1-1.6 1-2.3 2.6v-3.1h-2.3v6.1q1.2 0.2 2.4 0.4 0.1-0.7 0.3-1.4z"/>
			<path class="s1" d="m111.3 10.4h0.1l1.4 4.8q0.9-0.3 1.8-0.6l-2-7.1h-2.5l-3.1 10.8q1.2-0.8 2.4-1.5z"/>
			<path class="s2" d="m117.1 23.1l2.8-9.6q-2.7 0.3-5.3 1.1l2.4 8.5z"/>
			<path class="s3" d="m105.7 23.1l1.3-4.8q-1.2 0.9-2.3 1.8l0.9 3z"/>
			<path class="s2" d="m141.2 20.5v5.2h-2.3v-7c-2.9-2.2-6.4-3.8-10.1-4.7q-0.1 0.5-0.1 1.1v10.6h-2.3v-12.1q-1.8-0.3-3.7-0.3-0.2 0-0.5 0.1l-3.9 12.3h-2.5l-3-10.5q-1.8 0.7-3.4 1.6l-2.5 8.9h-2.5l-1.3-4.1c-4.7 5-7.7 11.7-7.7 19.1 0 15.1 12.2 27.3 27.3 27.3 15.1 0 27.3-12.2 27.3-27.3 0-8-3.4-15.2-8.8-20.2z"/>
			<path class="s1" d="m6.6 51.8q0.5 0.9 1.3 1.4 0.7 0.6 1.7 0.8 1 0.3 2.1 0.3 0.8 0 1.6-0.1 0.9-0.2 1.6-0.5 0.7-0.4 1.2-1 0.5-0.6 0.5-1.5 0-1.1-0.6-1.7-0.7-0.6-1.7-1-1.1-0.5-2.4-0.8-1.4-0.3-2.7-0.7-1.4-0.3-2.8-0.9-1.3-0.5-2.4-1.3-1-0.8-1.7-2-0.6-1.2-0.6-2.9 0-2 0.8-3.4 0.8-1.4 2.2-2.4 1.3-0.9 3-1.4 1.7-0.4 3.4-0.4 1.9 0 3.7 0.4 1.9 0.4 3.3 1.4 1.4 1 2.2 2.5 0.8 1.6 0.8 3.8h-5.3q-0.1-1.2-0.5-1.9-0.4-0.7-1.1-1.2-0.6-0.4-1.5-0.6-0.9-0.1-1.9-0.1-0.6 0-1.3 0.1-0.7 0.1-1.2 0.5-0.6 0.3-0.9 0.9-0.4 0.5-0.4 1.3 0 0.7 0.3 1.2 0.3 0.5 1.1 0.8 0.8 0.4 2.3 0.8 1.5 0.4 3.8 1 0.7 0.1 2 0.5 1.2 0.4 2.4 1.2 1.3 0.8 2.2 2.2 0.9 1.3 0.9 3.4 0 1.8-0.7 3.2-0.7 1.5-2 2.6-1.3 1.1-3.3 1.7-1.9 0.6-4.5 0.6-2 0-4-0.6-1.9-0.5-3.4-1.6-1.5-1.1-2.4-2.7-0.9-1.7-0.9-4.1h5.4q0 1.3 0.4 2.2z"/>
			<path class="s1" d="m34.7 39.8v3.3h-3.7v9q0 1.3 0.4 1.7 0.5 0.5 1.7 0.5 0.5 0 0.8-0.1 0.4 0 0.8-0.1v3.9q-0.7 0.1-1.4 0.1-0.8 0.1-1.5 0.1-1.2 0-2.2-0.2-1.1-0.2-1.9-0.6-0.7-0.5-1.2-1.3-0.5-0.9-0.5-2.2v-10.8h-3v-3.3h3v-5.5h5v5.5z"/>
			<path class="s1" d="m49.4 58v-2.5h-0.1q-1 1.5-2.5 2.2-1.5 0.7-3.1 0.7-2 0-3.3-0.5-1.3-0.5-2-1.5-0.7-0.9-1-2.3-0.3-1.4-0.3-3.1v-11.2h5v10.3q0 2.2 0.7 3.3 0.7 1.1 2.5 1.1 2 0 2.9-1.2 0.9-1.2 0.9-4v-9.5h5v18.2h-4.7z"/>
			<path fill-rule="evenodd" class="s1" d="m70.8 55.7q-0.9 1.4-2.3 2.1-1.4 0.6-3.2 0.6-2.1 0-3.6-0.7-1.5-0.8-2.5-2.2-1-1.3-1.6-3.1-0.5-1.8-0.5-3.7 0-1.8 0.5-3.5 0.6-1.7 1.6-3 1-1.3 2.5-2.1 1.5-0.8 3.5-0.8 1.6 0 3.1 0.7 1.4 0.7 2.3 2v-9.1h5v25.1h-4.7v-2.3zm-0.2-9q-0.2-1.1-0.8-1.9-0.5-0.7-1.3-1.2-0.8-0.5-2-0.5-1.2 0-2.1 0.5-0.8 0.4-1.3 1.3-0.6 0.8-0.8 1.8-0.2 1-0.2 2.2 0 1 0.2 2.1 0.3 1 0.8 1.9 0.6 0.8 1.4 1.3 0.8 0.5 2 0.5 1.2 0 2-0.5 0.9-0.5 1.4-1.3 0.4-0.8 0.7-1.9 0.2-1 0.2-2.2 0-1.1-0.2-2.1z"/>
			<path class="s1" d="m79.5 37v-4.1h5v4.1zm5 2.8v18.2h-5v-18.2z"/>
			<path fill-rule="evenodd" class="s1" d="m88.5 44.9q0.7-1.7 1.9-3 1.3-1.2 3-1.9 1.7-0.7 3.9-0.7 2.1 0 3.8 0.7 1.8 0.7 3 1.9 1.2 1.3 1.9 3 0.7 1.8 0.7 4 0 2.2-0.7 4-0.7 1.7-1.9 3-1.2 1.2-3 1.9-1.7 0.6-3.8 0.6-2.2 0-3.9-0.6-1.7-0.7-3-1.9-1.2-1.3-1.9-3-0.6-1.8-0.6-4 0-2.2 0.6-4zm4.6 6.1q0.2 1.1 0.7 1.9 0.5 0.8 1.4 1.3 0.8 0.5 2.1 0.5 1.2 0 2.1-0.5 0.8-0.5 1.4-1.3 0.5-0.8 0.7-1.9 0.2-1 0.2-2.1 0-1.1-0.2-2.1-0.2-1.1-0.7-1.9-0.6-0.8-1.4-1.3-0.9-0.5-2.1-0.5-1.3 0-2.1 0.5-0.9 0.5-1.4 1.3-0.5 0.8-0.7 1.9-0.2 1-0.2 2.1 0 1.1 0.2 2.1z"/>
		</g>
	</g>
</svg>